<?xml version="1.0" encoding="UTF-8" standalone="no"?>
<!DOCTYPE svg PUBLIC "-//W3C//DTD SVG 1.1//EN"
 "http://www.w3.org/Graphics/SVG/1.1/DTD/svg11.dtd">
<!-- Generated by graphviz version 12.0.0 (20240803.0821)
 -->
<!-- Pages: 1 -->
<svg width="283pt" height="263pt"
 viewBox="0.00 0.00 283.38 263.00" xmlns="http://www.w3.org/2000/svg" xmlns:xlink="http://www.w3.org/1999/xlink">
<g id="graph0" class="graph" transform="scale(1 1) rotate(0) translate(4 259)">
<polygon fill="white" stroke="none" points="-4,4 -4,-259 279.38,-259 279.38,4 -4,4"/>
<g id="clust1" class="cluster">
<title>cluster_0</title>
<polygon fill="none" stroke="white" points="4,-8 4,-247 65,-247 65,-8 4,-8"/>
<text text-anchor="middle" x="34.5" y="-229.7" font-family="Times,serif" font-size="14.00">inputs</text>
</g>
<g id="clust2" class="cluster">
<title>cluster_1</title>
<polygon fill="none" stroke="white" points="85,-35 85,-220 190.25,-220 190.25,-35 85,-35"/>
<text text-anchor="middle" x="137.62" y="-202.7" font-family="Times,serif" font-size="14.00">hidden layer</text>
</g>
<g id="clust3" class="cluster">
<title>cluster_2</title>
<polygon fill="none" stroke="white" points="210.25,-89 210.25,-166 273.5,-166 273.5,-89 210.25,-89"/>
<text text-anchor="middle" x="241.88" y="-148.7" font-family="Times,serif" font-size="14.00">output</text>
</g>
<!-- x[0] -->
<g id="node1" class="node">
<title>x[0]</title>
<ellipse fill="none" stroke="black" cx="34" cy="-34" rx="18" ry="18"/>
<text text-anchor="middle" x="34" y="-29.32" font-family="Times,serif" font-size="14.00">x[0]</text>
</g>
<!-- h0 -->
<g id="node5" class="node">
<title>h0</title>
<ellipse fill="none" stroke="black" cx="137.12" cy="-115" rx="18" ry="18"/>
<text text-anchor="middle" x="137.12" y="-110.33" font-family="Times,serif" font-size="14.00">h[0]</text>
</g>
<!-- x[0]&#45;&gt;h0 -->
<g id="edge1" class="edge">
<title>x[0]&#45;&gt;h0</title>
<path fill="none" stroke="black" d="M48.64,-44.92C65.3,-58.27 93.72,-81.04 113.64,-96.99"/>
<polygon fill="black" stroke="black" points="111.21,-99.52 121.2,-103.04 115.58,-94.06 111.21,-99.52"/>
</g>
<!-- h1 -->
<g id="node6" class="node">
<title>h1</title>
<ellipse fill="none" stroke="black" cx="137.12" cy="-169" rx="18" ry="18"/>
<text text-anchor="middle" x="137.12" y="-164.32" font-family="Times,serif" font-size="14.00">h[1]</text>
</g>
<!-- x[0]&#45;&gt;h1 -->
<g id="edge2" class="edge">
<title>x[0]&#45;&gt;h1</title>
<path fill="none" stroke="black" d="M45.63,-48.19C63.05,-71.45 97.83,-117.87 118.83,-145.91"/>
<polygon fill="black" stroke="black" points="115.93,-147.88 124.73,-153.79 121.53,-143.68 115.93,-147.88"/>
</g>
<!-- h2 -->
<g id="node7" class="node">
<title>h2</title>
<ellipse fill="none" stroke="black" cx="137.12" cy="-61" rx="18" ry="18"/>
<text text-anchor="middle" x="137.12" y="-56.33" font-family="Times,serif" font-size="14.00">h[2]</text>
</g>
<!-- x[0]&#45;&gt;h2 -->
<g id="edge3" class="edge">
<title>x[0]&#45;&gt;h2</title>
<path fill="none" stroke="black" d="M51.7,-38.46C67.07,-42.56 90.17,-48.73 108.32,-53.58"/>
<polygon fill="black" stroke="black" points="107.37,-56.95 117.94,-56.14 109.18,-50.18 107.37,-56.95"/>
</g>
<!-- x[1] -->
<g id="node2" class="node">
<title>x[1]</title>
<ellipse fill="none" stroke="black" cx="34" cy="-88" rx="18" ry="18"/>
<text text-anchor="middle" x="34" y="-83.33" font-family="Times,serif" font-size="14.00">x[1]</text>
</g>
<!-- x[1]&#45;&gt;h0 -->
<g id="edge4" class="edge">
<title>x[1]&#45;&gt;h0</title>
<path fill="none" stroke="black" d="M51.7,-92.46C67.07,-96.56 90.17,-102.73 108.32,-107.58"/>
<polygon fill="black" stroke="black" points="107.37,-110.95 117.94,-110.14 109.18,-104.18 107.37,-110.95"/>
</g>
<!-- x[1]&#45;&gt;h1 -->
<g id="edge5" class="edge">
<title>x[1]&#45;&gt;h1</title>
<path fill="none" stroke="black" d="M48.64,-98.92C65.3,-112.27 93.72,-135.04 113.64,-150.99"/>
<polygon fill="black" stroke="black" points="111.21,-153.52 121.2,-157.04 115.58,-148.06 111.21,-153.52"/>
</g>
<!-- x[1]&#45;&gt;h2 -->
<g id="edge6" class="edge">
<title>x[1]&#45;&gt;h2</title>
<path fill="none" stroke="black" d="M51.7,-83.54C67.07,-79.44 90.17,-73.27 108.32,-68.42"/>
<polygon fill="black" stroke="black" points="109.18,-71.82 117.94,-65.86 107.37,-65.05 109.18,-71.82"/>
</g>
<!-- x[2] -->
<g id="node3" class="node">
<title>x[2]</title>
<ellipse fill="none" stroke="black" cx="34" cy="-142" rx="18" ry="18"/>
<text text-anchor="middle" x="34" y="-137.32" font-family="Times,serif" font-size="14.00">x[2]</text>
</g>
<!-- x[2]&#45;&gt;h0 -->
<g id="edge7" class="edge">
<title>x[2]&#45;&gt;h0</title>
<path fill="none" stroke="black" d="M51.7,-137.54C67.07,-133.44 90.17,-127.27 108.32,-122.42"/>
<polygon fill="black" stroke="black" points="109.18,-125.82 117.94,-119.86 107.37,-119.05 109.18,-125.82"/>
</g>
<!-- x[2]&#45;&gt;h1 -->
<g id="edge8" class="edge">
<title>x[2]&#45;&gt;h1</title>
<path fill="none" stroke="black" d="M51.7,-146.46C67.07,-150.56 90.17,-156.73 108.32,-161.58"/>
<polygon fill="black" stroke="black" points="107.37,-164.95 117.94,-164.14 109.18,-158.18 107.37,-164.95"/>
</g>
<!-- x[2]&#45;&gt;h2 -->
<g id="edge9" class="edge">
<title>x[2]&#45;&gt;h2</title>
<path fill="none" stroke="black" d="M48.64,-131.08C65.3,-117.73 93.72,-94.96 113.64,-79.01"/>
<polygon fill="black" stroke="black" points="115.58,-81.94 121.2,-72.96 111.21,-76.48 115.58,-81.94"/>
</g>
<!-- x[3] -->
<g id="node4" class="node">
<title>x[3]</title>
<ellipse fill="none" stroke="black" cx="34" cy="-196" rx="18" ry="18"/>
<text text-anchor="middle" x="34" y="-191.32" font-family="Times,serif" font-size="14.00">x[3]</text>
</g>
<!-- x[3]&#45;&gt;h0 -->
<g id="edge10" class="edge">
<title>x[3]&#45;&gt;h0</title>
<path fill="none" stroke="black" d="M48.64,-185.08C65.3,-171.73 93.72,-148.96 113.64,-133.01"/>
<polygon fill="black" stroke="black" points="115.58,-135.94 121.2,-126.96 111.21,-130.48 115.58,-135.94"/>
</g>
<!-- x[3]&#45;&gt;h1 -->
<g id="edge11" class="edge">
<title>x[3]&#45;&gt;h1</title>
<path fill="none" stroke="black" d="M51.7,-191.54C67.07,-187.44 90.17,-181.27 108.32,-176.42"/>
<polygon fill="black" stroke="black" points="109.18,-179.82 117.94,-173.86 107.37,-173.05 109.18,-179.82"/>
</g>
<!-- x[3]&#45;&gt;h2 -->
<g id="edge12" class="edge">
<title>x[3]&#45;&gt;h2</title>
<path fill="none" stroke="black" d="M45.63,-181.81C63.05,-158.55 97.83,-112.13 118.83,-84.09"/>
<polygon fill="black" stroke="black" points="121.53,-86.32 124.73,-76.21 115.93,-82.12 121.53,-86.32"/>
</g>
<!-- y -->
<g id="node8" class="node">
<title>y</title>
<ellipse fill="none" stroke="black" cx="241.38" cy="-115" rx="18" ry="18"/>
<text text-anchor="middle" x="241.38" y="-110.33" font-family="Times,serif" font-size="14.00">y</text>
</g>
<!-- h0&#45;&gt;y -->
<g id="edge13" class="edge">
<title>h0&#45;&gt;y</title>
<path fill="none" stroke="black" d="M155.47,-115C170.82,-115 193.53,-115 211.59,-115"/>
<polygon fill="black" stroke="black" points="211.43,-118.5 221.43,-115 211.43,-111.5 211.43,-118.5"/>
</g>
<!-- h1&#45;&gt;y -->
<g id="edge14" class="edge">
<title>h1&#45;&gt;y</title>
<path fill="none" stroke="black" d="M153.65,-160.8C169.89,-152.22 195.63,-138.63 214.86,-128.48"/>
<polygon fill="black" stroke="black" points="216.49,-131.57 223.7,-123.81 213.22,-125.38 216.49,-131.57"/>
</g>
<!-- h2&#45;&gt;y -->
<g id="edge15" class="edge">
<title>h2&#45;&gt;y</title>
<path fill="none" stroke="black" d="M153.65,-69.2C169.89,-77.78 195.63,-91.37 214.86,-101.52"/>
<polygon fill="black" stroke="black" points="213.22,-104.62 223.7,-106.19 216.49,-98.43 213.22,-104.62"/>
</g>
</g>
</svg>