<?xml version="1.0" encoding="UTF-8" standalone="no"?>
<!DOCTYPE svg PUBLIC "-//W3C//DTD SVG 1.1//EN"
 "http://www.w3.org/Graphics/SVG/1.1/DTD/svg11.dtd">
<!-- Generated by graphviz version 12.0.0 (20240803.0821)
 -->
<!-- Pages: 1 -->
<svg width="436pt" height="263pt"
 viewBox="0.00 0.00 435.62 263.00" xmlns="http://www.w3.org/2000/svg" xmlns:xlink="http://www.w3.org/1999/xlink">
<g id="graph0" class="graph" transform="scale(1 1) rotate(0) translate(4 259)">
<polygon fill="white" stroke="none" points="-4,4 -4,-259 431.62,-259 431.62,4 -4,4"/>
<g id="clust1" class="cluster">
<title>cluster_0</title>
<polygon fill="none" stroke="white" points="4,-8 4,-247 65,-247 65,-8 4,-8"/>
<text text-anchor="middle" x="34.5" y="-229.7" font-family="Times,serif" font-size="14.00">inputs</text>
</g>
<g id="clust2" class="cluster">
<title>cluster_1</title>
<polygon fill="none" stroke="white" points="85,-35 85,-220 203.75,-220 203.75,-35 85,-35"/>
<text text-anchor="middle" x="144.38" y="-202.7" font-family="Times,serif" font-size="14.00">hidden layer 1</text>
</g>
<g id="clust3" class="cluster">
<title>cluster_2</title>
<polygon fill="none" stroke="white" points="223.75,-35 223.75,-220 342.5,-220 342.5,-35 223.75,-35"/>
<text text-anchor="middle" x="283.12" y="-202.7" font-family="Times,serif" font-size="14.00">hidden layer 2</text>
</g>
<g id="clust4" class="cluster">
<title>cluster_3</title>
<polygon fill="none" stroke="white" points="362.5,-89 362.5,-166 425.75,-166 425.75,-89 362.5,-89"/>
<text text-anchor="middle" x="394.12" y="-148.7" font-family="Times,serif" font-size="14.00">output</text>
</g>
<!-- x[0] -->
<g id="node1" class="node">
<title>x[0]</title>
<ellipse fill="none" stroke="black" cx="34" cy="-34" rx="18" ry="18"/>
<text text-anchor="middle" x="34" y="-29.32" font-family="Times,serif" font-size="14.00">x[0]</text>
</g>
<!-- h1[0] -->
<g id="node5" class="node">
<title>h1[0]</title>
<ellipse fill="none" stroke="black" cx="143.88" cy="-115" rx="18" ry="18"/>
<text text-anchor="middle" x="143.88" y="-110.33" font-family="Times,serif" font-size="14.00">h1[0]</text>
</g>
<!-- x[0]&#45;&gt;h1[0] -->
<g id="edge1" class="edge">
<title>x[0]&#45;&gt;h1[0]</title>
<path fill="none" stroke="black" d="M49.1,-44.59C67.03,-58.05 98.23,-81.47 119.68,-97.58"/>
<polygon fill="black" stroke="black" points="117.46,-100.29 127.56,-103.5 121.66,-94.7 117.46,-100.29"/>
</g>
<!-- h1[1] -->
<g id="node6" class="node">
<title>h1[1]</title>
<ellipse fill="none" stroke="black" cx="143.88" cy="-169" rx="18" ry="18"/>
<text text-anchor="middle" x="143.88" y="-164.32" font-family="Times,serif" font-size="14.00">h1[1]</text>
</g>
<!-- x[0]&#45;&gt;h1[1] -->
<g id="edge2" class="edge">
<title>x[0]&#45;&gt;h1[1]</title>
<path fill="none" stroke="black" d="M46.14,-47.94C64.81,-71.3 102.57,-118.56 124.99,-146.62"/>
<polygon fill="black" stroke="black" points="122.04,-148.53 131.01,-154.16 127.5,-144.16 122.04,-148.53"/>
</g>
<!-- h1[2] -->
<g id="node7" class="node">
<title>h1[2]</title>
<ellipse fill="none" stroke="black" cx="143.88" cy="-61" rx="18" ry="18"/>
<text text-anchor="middle" x="143.88" y="-56.33" font-family="Times,serif" font-size="14.00">h1[2]</text>
</g>
<!-- x[0]&#45;&gt;h1[2] -->
<g id="edge3" class="edge">
<title>x[0]&#45;&gt;h1[2]</title>
<path fill="none" stroke="black" d="M51.86,-38.22C68.8,-42.46 95.2,-49.07 115.21,-54.08"/>
<polygon fill="black" stroke="black" points="114.12,-57.41 124.67,-56.44 115.82,-50.62 114.12,-57.41"/>
</g>
<!-- x[1] -->
<g id="node2" class="node">
<title>x[1]</title>
<ellipse fill="none" stroke="black" cx="34" cy="-88" rx="18" ry="18"/>
<text text-anchor="middle" x="34" y="-83.33" font-family="Times,serif" font-size="14.00">x[1]</text>
</g>
<!-- x[1]&#45;&gt;h1[0] -->
<g id="edge4" class="edge">
<title>x[1]&#45;&gt;h1[0]</title>
<path fill="none" stroke="black" d="M51.86,-92.22C68.8,-96.46 95.2,-103.07 115.21,-108.08"/>
<polygon fill="black" stroke="black" points="114.12,-111.41 124.67,-110.44 115.82,-104.62 114.12,-111.41"/>
</g>
<!-- x[1]&#45;&gt;h1[1] -->
<g id="edge5" class="edge">
<title>x[1]&#45;&gt;h1[1]</title>
<path fill="none" stroke="black" d="M49.1,-98.59C67.03,-112.05 98.23,-135.47 119.68,-151.58"/>
<polygon fill="black" stroke="black" points="117.46,-154.29 127.56,-157.5 121.66,-148.7 117.46,-154.29"/>
</g>
<!-- x[1]&#45;&gt;h1[2] -->
<g id="edge6" class="edge">
<title>x[1]&#45;&gt;h1[2]</title>
<path fill="none" stroke="black" d="M51.86,-83.78C68.8,-79.54 95.2,-72.93 115.21,-67.92"/>
<polygon fill="black" stroke="black" points="115.82,-71.38 124.67,-65.56 114.12,-64.59 115.82,-71.38"/>
</g>
<!-- x[2] -->
<g id="node3" class="node">
<title>x[2]</title>
<ellipse fill="none" stroke="black" cx="34" cy="-142" rx="18" ry="18"/>
<text text-anchor="middle" x="34" y="-137.32" font-family="Times,serif" font-size="14.00">x[2]</text>
</g>
<!-- x[2]&#45;&gt;h1[0] -->
<g id="edge7" class="edge">
<title>x[2]&#45;&gt;h1[0]</title>
<path fill="none" stroke="black" d="M51.86,-137.78C68.8,-133.54 95.2,-126.93 115.21,-121.92"/>
<polygon fill="black" stroke="black" points="115.82,-125.38 124.67,-119.56 114.12,-118.59 115.82,-125.38"/>
</g>
<!-- x[2]&#45;&gt;h1[1] -->
<g id="edge8" class="edge">
<title>x[2]&#45;&gt;h1[1]</title>
<path fill="none" stroke="black" d="M51.86,-146.22C68.8,-150.46 95.2,-157.07 115.21,-162.08"/>
<polygon fill="black" stroke="black" points="114.12,-165.41 124.67,-164.44 115.82,-158.62 114.12,-165.41"/>
</g>
<!-- x[2]&#45;&gt;h1[2] -->
<g id="edge9" class="edge">
<title>x[2]&#45;&gt;h1[2]</title>
<path fill="none" stroke="black" d="M49.1,-131.41C67.03,-117.95 98.23,-94.53 119.68,-78.42"/>
<polygon fill="black" stroke="black" points="121.66,-81.3 127.56,-72.5 117.46,-75.71 121.66,-81.3"/>
</g>
<!-- x[3] -->
<g id="node4" class="node">
<title>x[3]</title>
<ellipse fill="none" stroke="black" cx="34" cy="-196" rx="18" ry="18"/>
<text text-anchor="middle" x="34" y="-191.32" font-family="Times,serif" font-size="14.00">x[3]</text>
</g>
<!-- x[3]&#45;&gt;h1[0] -->
<g id="edge10" class="edge">
<title>x[3]&#45;&gt;h1[0]</title>
<path fill="none" stroke="black" d="M49.1,-185.41C67.03,-171.95 98.23,-148.53 119.68,-132.42"/>
<polygon fill="black" stroke="black" points="121.66,-135.3 127.56,-126.5 117.46,-129.71 121.66,-135.3"/>
</g>
<!-- x[3]&#45;&gt;h1[1] -->
<g id="edge11" class="edge">
<title>x[3]&#45;&gt;h1[1]</title>
<path fill="none" stroke="black" d="M51.86,-191.78C68.8,-187.54 95.2,-180.93 115.21,-175.92"/>
<polygon fill="black" stroke="black" points="115.82,-179.38 124.67,-173.56 114.12,-172.59 115.82,-179.38"/>
</g>
<!-- x[3]&#45;&gt;h1[2] -->
<g id="edge12" class="edge">
<title>x[3]&#45;&gt;h1[2]</title>
<path fill="none" stroke="black" d="M46.14,-182.06C64.81,-158.7 102.57,-111.44 124.99,-83.38"/>
<polygon fill="black" stroke="black" points="127.5,-85.84 131.01,-75.84 122.04,-81.47 127.5,-85.84"/>
</g>
<!-- h2[0] -->
<g id="node8" class="node">
<title>h2[0]</title>
<ellipse fill="none" stroke="black" cx="282.62" cy="-115" rx="18" ry="18"/>
<text text-anchor="middle" x="282.62" y="-110.33" font-family="Times,serif" font-size="14.00">h2[0]</text>
</g>
<!-- h1[0]&#45;&gt;h2[0] -->
<g id="edge13" class="edge">
<title>h1[0]&#45;&gt;h2[0]</title>
<path fill="none" stroke="black" d="M162.19,-115C185.11,-115 225.79,-115 253.23,-115"/>
<polygon fill="black" stroke="black" points="252.93,-118.5 262.93,-115 252.93,-111.5 252.93,-118.5"/>
</g>
<!-- h2[1] -->
<g id="node9" class="node">
<title>h2[1]</title>
<ellipse fill="none" stroke="black" cx="282.62" cy="-169" rx="18" ry="18"/>
<text text-anchor="middle" x="282.62" y="-164.32" font-family="Times,serif" font-size="14.00">h2[1]</text>
</g>
<!-- h1[0]&#45;&gt;h2[1] -->
<g id="edge14" class="edge">
<title>h1[0]&#45;&gt;h2[1]</title>
<path fill="none" stroke="black" d="M161.1,-121.41C184.23,-130.54 226.97,-147.42 254.84,-158.42"/>
<polygon fill="black" stroke="black" points="253.43,-161.63 264.01,-162.05 256,-155.12 253.43,-161.63"/>
</g>
<!-- h2[2] -->
<g id="node10" class="node">
<title>h2[2]</title>
<ellipse fill="none" stroke="black" cx="282.62" cy="-61" rx="18" ry="18"/>
<text text-anchor="middle" x="282.62" y="-56.33" font-family="Times,serif" font-size="14.00">h2[2]</text>
</g>
<!-- h1[0]&#45;&gt;h2[2] -->
<g id="edge15" class="edge">
<title>h1[0]&#45;&gt;h2[2]</title>
<path fill="none" stroke="black" d="M161.1,-108.59C184.23,-99.46 226.97,-82.58 254.84,-71.58"/>
<polygon fill="black" stroke="black" points="256,-74.88 264.01,-67.95 253.43,-68.37 256,-74.88"/>
</g>
<!-- h1[1]&#45;&gt;h2[0] -->
<g id="edge16" class="edge">
<title>h1[1]&#45;&gt;h2[0]</title>
<path fill="none" stroke="black" d="M161.1,-162.59C184.23,-153.46 226.97,-136.58 254.84,-125.58"/>
<polygon fill="black" stroke="black" points="256,-128.88 264.01,-121.95 253.43,-122.37 256,-128.88"/>
</g>
<!-- h1[1]&#45;&gt;h2[1] -->
<g id="edge17" class="edge">
<title>h1[1]&#45;&gt;h2[1]</title>
<path fill="none" stroke="black" d="M162.19,-169C185.11,-169 225.79,-169 253.23,-169"/>
<polygon fill="black" stroke="black" points="252.93,-172.5 262.93,-169 252.93,-165.5 252.93,-172.5"/>
</g>
<!-- h1[1]&#45;&gt;h2[2] -->
<g id="edge18" class="edge">
<title>h1[1]&#45;&gt;h2[2]</title>
<path fill="none" stroke="black" d="M158.74,-158.05C182.41,-139.36 230.81,-101.13 259.3,-78.63"/>
<polygon fill="black" stroke="black" points="261.26,-81.54 266.94,-72.6 256.92,-76.05 261.26,-81.54"/>
</g>
<!-- h1[2]&#45;&gt;h2[0] -->
<g id="edge19" class="edge">
<title>h1[2]&#45;&gt;h2[0]</title>
<path fill="none" stroke="black" d="M161.1,-67.41C184.23,-76.54 226.97,-93.42 254.84,-104.42"/>
<polygon fill="black" stroke="black" points="253.43,-107.63 264.01,-108.05 256,-101.12 253.43,-107.63"/>
</g>
<!-- h1[2]&#45;&gt;h2[1] -->
<g id="edge20" class="edge">
<title>h1[2]&#45;&gt;h2[1]</title>
<path fill="none" stroke="black" d="M158.74,-71.95C182.41,-90.64 230.81,-128.87 259.3,-151.37"/>
<polygon fill="black" stroke="black" points="256.92,-153.95 266.94,-157.4 261.26,-148.46 256.92,-153.95"/>
</g>
<!-- h1[2]&#45;&gt;h2[2] -->
<g id="edge21" class="edge">
<title>h1[2]&#45;&gt;h2[2]</title>
<path fill="none" stroke="black" d="M162.19,-61C185.11,-61 225.79,-61 253.23,-61"/>
<polygon fill="black" stroke="black" points="252.93,-64.5 262.93,-61 252.93,-57.5 252.93,-64.5"/>
</g>
<!-- y -->
<g id="node11" class="node">
<title>y</title>
<ellipse fill="none" stroke="black" cx="393.62" cy="-115" rx="18" ry="18"/>
<text text-anchor="middle" x="393.62" y="-110.33" font-family="Times,serif" font-size="14.00">y</text>
</g>
<!-- h2[0]&#45;&gt;y -->
<g id="edge22" class="edge">
<title>h2[0]&#45;&gt;y</title>
<path fill="none" stroke="black" d="M300.66,-115C317.59,-115 343.89,-115 364.03,-115"/>
<polygon fill="black" stroke="black" points="363.84,-118.5 373.84,-115 363.84,-111.5 363.84,-118.5"/>
</g>
<!-- h2[1]&#45;&gt;y -->
<g id="edge23" class="edge">
<title>h2[1]&#45;&gt;y</title>
<path fill="none" stroke="black" d="M299.24,-161.26C316.89,-152.52 345.88,-138.16 366.88,-127.75"/>
<polygon fill="black" stroke="black" points="368.27,-130.97 375.68,-123.39 365.17,-124.7 368.27,-130.97"/>
</g>
<!-- h2[2]&#45;&gt;y -->
<g id="edge24" class="edge">
<title>h2[2]&#45;&gt;y</title>
<path fill="none" stroke="black" d="M299.24,-68.74C316.89,-77.48 345.88,-91.84 366.88,-102.25"/>
<polygon fill="black" stroke="black" points="365.17,-105.3 375.68,-106.61 368.27,-99.03 365.17,-105.3"/>
</g>
</g>
</svg>