<?xml version="1.0" encoding="UTF-8" standalone="no"?>
<!DOCTYPE svg PUBLIC "-//W3C//DTD SVG 1.1//EN"
 "http://www.w3.org/Graphics/SVG/1.1/DTD/svg11.dtd">
<!-- Generated by graphviz version 12.0.0 (20240803.0821)
 -->
<!-- Pages: 1 -->
<svg width="190pt" height="263pt"
 viewBox="0.00 0.00 189.62 263.00" xmlns="http://www.w3.org/2000/svg" xmlns:xlink="http://www.w3.org/1999/xlink">
<g id="graph0" class="graph" transform="scale(1 1) rotate(0) translate(4 259)">
<polygon fill="white" stroke="none" points="-4,4 -4,-259 185.62,-259 185.62,4 -4,4"/>
<g id="clust1" class="cluster">
<title>cluster_0</title>
<polygon fill="none" stroke="white" points="4,-8 4,-247 65,-247 65,-8 4,-8"/>
<text text-anchor="middle" x="34.5" y="-229.7" font-family="Times,serif" font-size="14.00">inputs</text>
</g>
<g id="clust2" class="cluster">
<title>cluster_2</title>
<polygon fill="none" stroke="white" points="116.5,-88 116.5,-165 179.75,-165 179.75,-88 116.5,-88"/>
<text text-anchor="middle" x="148.12" y="-147.7" font-family="Times,serif" font-size="14.00">output</text>
</g>
<!-- x[0] -->
<g id="node1" class="node">
<title>x[0]</title>
<ellipse fill="none" stroke="black" cx="34" cy="-196" rx="18" ry="18"/>
<text text-anchor="middle" x="34" y="-191.32" font-family="Times,serif" font-size="14.00">x[0]</text>
</g>
<!-- y -->
<g id="node5" class="node">
<title>y</title>
<ellipse fill="none" stroke="black" cx="147.62" cy="-114" rx="18" ry="18"/>
<text text-anchor="middle" x="147.62" y="-109.33" font-family="Times,serif" font-size="14.00">y</text>
</g>
<!-- x[0]&#45;&gt;y -->
<g id="edge1" class="edge">
<title>x[0]&#45;&gt;y</title>
<path fill="none" stroke="black" d="M49.14,-185.61C67.84,-171.87 101.05,-147.48 123.45,-131.02"/>
<polygon fill="black" stroke="black" points="125.4,-133.94 131.38,-125.2 121.25,-128.3 125.4,-133.94"/>
<text text-anchor="middle" x="90.75" y="-174.95" font-family="Times,serif" font-size="14.00">w[0]</text>
</g>
<!-- x[1] -->
<g id="node2" class="node">
<title>x[1]</title>
<ellipse fill="none" stroke="black" cx="34" cy="-142" rx="18" ry="18"/>
<text text-anchor="middle" x="34" y="-137.32" font-family="Times,serif" font-size="14.00">x[1]</text>
</g>
<!-- x[1]&#45;&gt;y -->
<g id="edge2" class="edge">
<title>x[1]&#45;&gt;y</title>
<path fill="none" stroke="black" d="M51.95,-137.75C69.68,-133.3 97.78,-126.25 118.77,-120.99"/>
<polygon fill="black" stroke="black" points="119.56,-124.4 128.41,-118.57 117.86,-117.61 119.56,-124.4"/>
<text text-anchor="middle" x="90.75" y="-134.95" font-family="Times,serif" font-size="14.00">w[1]</text>
</g>
<!-- x[2] -->
<g id="node3" class="node">
<title>x[2]</title>
<ellipse fill="none" stroke="black" cx="34" cy="-88" rx="18" ry="18"/>
<text text-anchor="middle" x="34" y="-83.33" font-family="Times,serif" font-size="14.00">x[2]</text>
</g>
<!-- x[2]&#45;&gt;y -->
<g id="edge3" class="edge">
<title>x[2]&#45;&gt;y</title>
<path fill="none" stroke="black" d="M51.95,-91.95C69.68,-96.08 97.78,-102.62 118.77,-107.51"/>
<polygon fill="black" stroke="black" points="117.87,-110.9 128.4,-109.76 119.46,-104.08 117.87,-110.9"/>
<text text-anchor="middle" x="90.75" y="-101.95" font-family="Times,serif" font-size="14.00">w[2]</text>
</g>
<!-- x[3] -->
<g id="node4" class="node">
<title>x[3]</title>
<ellipse fill="none" stroke="black" cx="34" cy="-34" rx="18" ry="18"/>
<text text-anchor="middle" x="34" y="-29.32" font-family="Times,serif" font-size="14.00">x[3]</text>
</g>
<!-- x[3]&#45;&gt;y -->
<g id="edge4" class="edge">
<title>x[3]&#45;&gt;y</title>
<path fill="none" stroke="black" d="M49.14,-44.13C67.84,-57.54 101.05,-81.34 123.45,-97.39"/>
<polygon fill="black" stroke="black" points="121.21,-100.09 131.37,-103.07 125.28,-94.4 121.21,-100.09"/>
<text text-anchor="middle" x="90.75" y="-75.95" font-family="Times,serif" font-size="14.00">w[3]</text>
</g>
</g>
</svg>